<?xml version="1.0" encoding="utf-8"?>
<!-- Generator: Adobe Illustrator 19.2.1, SVG Export Plug-In . SVG Version: 6.00 Build 0)  -->
<svg version="1.1" id="layer" xmlns="http://www.w3.org/2000/svg" xmlns:xlink="http://www.w3.org/1999/xlink" x="0px" y="0px"
	 viewBox="0 0 652 652" style="enable-background:new 0 0 652 652;" xml:space="preserve">
<g id="Symbols">
	<g id="RVCA-Logo">
		<g id="Group">
			<g id="Group-9">
				<path id="Fill-1" d="M291.9,262.6c0,0-45.5,82.7-51.3,93.5c-5.9-10.7-51.4-93.5-51.4-93.5h-25.5l65.5,118.8H252l65.4-118.8
					H291.9"/>
				<path id="Fill-2" d="M555.6,262.6h-22.8l-65.4,118.8h25.5c0,0,45.5-82.8,51.4-93.5c5.9,10.7,51.3,93.5,51.3,93.5H621
					L555.6,262.6"/>
				<path id="Fill-3" d="M151.9,296.6c0-27.3-14.1-34.1-36-34.1H21v118.8h22.6v-43.7h57.7c2,3.6,24.1,43.7,24.1,43.7h25.4
					c0,0-15.6-28.6-24.6-44.9C149.1,332.6,151.9,316.9,151.9,296.6L151.9,296.6z M129.5,305.7c-0.6,6.2-3.4,11.9-16,11.9H43.6v-35.1
					h68.7c11.7,0,16.7,2.8,17.2,12.6C129.7,298.2,129.9,302,129.5,305.7L129.5,305.7z"/>
				<path id="Fill-4" d="M348.7,341.5c-1.4-13.9-1.2-27.1,0-39.3c1.4-14.3,7.3-19.8,23.2-19.8h77.3v-19.9h-78.9
					c-30.3,0-42.7,13.6-44.3,45.4c-0.5,9.7-0.5,19.3,0,28c1.7,31.8,14,45.4,44.3,45.4h81.6v-20h-80
					C356,361.3,350.1,355.8,348.7,341.5"/>
			</g>
		</g>
	</g>
</g>
</svg>
